<?xml version="1.0" encoding="iso-8859-1"?>
<!-- Generator: Adobe Illustrator 19.0.0, SVG Export Plug-In . SVG Version: 6.00 Build 0)  -->
<svg version="1.1" id="Capa_1" xmlns="http://www.w3.org/2000/svg" xmlns:xlink="http://www.w3.org/1999/xlink" x="0px" y="0px"
	 viewBox="0 0 512.001 512.001" style="enable-background:new 0 0 512.001 512.001;" xml:space="preserve">
<g>
	<g>
		<g>
			<polygon points="119.875,511.003 159.786,511.003 159.786,245.448 119.875,205.537 			"/>
			<polygon points="198.699,511.002 238.61,511.002 238.61,324.272 198.699,284.361 			"/>
			<polygon points="41.05,511.003 80.961,511.003 80.961,166.623 41.05,126.712 			"/>
			<polygon points="433.176,511.002 473.087,511.002 473.087,398.254 433.176,398.39 			"/>
			<polygon points="472.089,237.611 472.089,237.612 472.089,288.049 329.366,141.084 248.838,221.613 28.221,0.998 0,29.219 
				248.837,278.056 328.95,197.943 444.024,316.435 392.268,316.435 392.268,356.346 512.001,356.346 512.001,237.611 			"/>
			<polygon points="354.352,511.002 394.262,511.002 394.262,408.231 354.352,365.327 			"/>
			<polygon points="276.525,511.002 316.435,511.002 316.435,266.9 276.525,306.81 			"/>
		</g>
	</g>
</g>
<g>
</g>
<g>
</g>
<g>
</g>
<g>
</g>
<g>
</g>
<g>
</g>
<g>
</g>
<g>
</g>
<g>
</g>
<g>
</g>
<g>
</g>
<g>
</g>
<g>
</g>
<g>
</g>
<g>
</g>
</svg>
